<svg xmlns="http://www.w3.org/2000/svg" viewBox="0 0 64 64" role="img" aria-labelledby="title description">
  <title id="title">Mandyal Travels symbol</title>
  <desc id="description">Himalayan mountain peaks, a rising sun, and a journey path.</desc>
  <defs>
    <linearGradient id="background" x1="8" x2="56" y1="4" y2="60" gradientUnits="userSpaceOnUse">
      <stop stop-color="#174f82" />
      <stop offset="1" stop-color="#071f3a" />
    </linearGradient>
  </defs>
  <rect x="2" y="2" width="60" height="60" rx="17" fill="url(#background)" />
  <circle cx="46" cy="17" r="5" fill="#f59e3d" />
  <path d="M8 47 22 24l8 12 9-17 17 28H8Z" fill="#dbeafe" />
  <path d="m17 33 5-9 5 8 3-4 3 5 6-14 8 13-5-4-3 5-4-4-5 7-8-6-5 7-4-4Z" fill="#fff" />
  <path d="M8 47h48v6H8z" fill="#0c3157" />
  <path d="M18 52c1-8 13-7 14-15 .8 7 12 7 14 15" fill="none" stroke="#f59e3d" stroke-width="3.5" stroke-linecap="round" />
</svg>
